<svg xmlns="http://www.w3.org/2000/svg" viewBox="0 0 292.69 100.29"><defs><style>.cls-1{isolation:isolate;}.cls-2{fill:#7c1a5d;}.cls-10,.cls-3{fill:#ee4036;}.cls-10,.cls-12,.cls-14,.cls-3,.cls-4,.cls-5,.cls-7{mix-blend-mode:multiply;}.cls-12,.cls-3,.cls-4,.cls-5,.cls-7{opacity:0.51;}.cls-4,.cls-9{fill:#ec1c24;}.cls-14,.cls-5,.cls-8{fill:#f05a28;}.cls-6,.cls-7{fill:#ffca05;}.cls-11,.cls-12{fill:#db63a4;}.cls-13{fill:#fff;}</style></defs><g class="cls-1"><g id="Layer_2" data-name="Layer 2"><g id="Layer_1-2" data-name="Layer 1"><g id="Header"><path class="cls-2" d="M0,95.36l1.71-.15c.88-.11,1.51-.42,1.51-1.46V69.63l-3-.16V65.06H14.42c7.63,0,12.45,2.49,12.45,9.55a9.54,9.54,0,0,1-6.22,9.13c1.4.52,2.18,1.4,3,3.17l3.73,8.14,3,.11v4.41H17.48V95.36L19,95.21c1.19-.16,1.45-.62,1-1.66l-2.43-5.19C16.81,86.75,16.08,86,14.27,86H9.55v9l3.37.16v4.41H0ZM14.06,81c4.41,0,6.38-2,6.38-5.7,0-4.67-2.7-5.24-7.11-5.24H9.55V81Z"/><path class="cls-2" d="M55.82,93.81c0,1.14.31,1.45,1.3,1.5l1.66.1v4.16H50.53v-3l-.16-.06a8.61,8.61,0,0,1-7.11,3.74c-7.31,0-10.37-5.19-10.37-12.61,0-9.13,4.36-14.94,13.69-14.94a29.3,29.3,0,0,1,9.24,1.82Zm-6-15.93a10.93,10.93,0,0,0-4-.68c-4.93,0-6.59,4.62-6.59,10.23,0,4.3,1,8.4,5.39,8.4,3.22,0,5.19-2.28,5.19-4.51Z"/><path class="cls-2" d="M78.7,73.31V68.07c0-.88-.47-1.19-1.35-1.24l-2.23-.16v-4.1h9.65V94.12c0,.88.41,1.19,1.29,1.19l1.82.1v4.16H79.47V96.5l-.15,0a8,8,0,0,1-7.06,3.79c-8.09,0-10.48-6.23-10.48-12.71,0-8.87,4.57-14.84,12.66-14.84A13.82,13.82,0,0,1,78.7,73.31Zm0,4.73a9.88,9.88,0,0,0-4-.84c-4.93,0-6.59,4.67-6.59,9.76,0,4.72,1.15,8.71,5.61,8.71,2.9,0,4.93-1.92,4.93-4.2Z"/><path class="cls-2" d="M100.27,95.26l3,.15v4.16H90.88V95.62l1.72-.15c.93-.11,1.5-.42,1.5-1.66V79.38c0-1.14-.31-1.5-1.3-1.5L91,77.78V73.47h9.28ZM96.64,62.37a3.83,3.83,0,0,1,4,3.89,3.76,3.76,0,0,1-4,3.78,3.68,3.68,0,0,1-3.94-3.78A3.78,3.78,0,0,1,96.64,62.37Z"/><path class="cls-2" d="M129.53,93.81c0,1.14.31,1.45,1.3,1.5l1.66.1v4.16h-8.25v-3l-.16-.06a8.59,8.59,0,0,1-7.1,3.74c-7.32,0-10.38-5.19-10.38-12.61,0-9.13,4.36-14.94,13.7-14.94a29.25,29.25,0,0,1,9.23,1.82Zm-6-15.93a10.88,10.88,0,0,0-4-.68c-4.93,0-6.59,4.62-6.59,10.23,0,4.3,1,8.4,5.4,8.4,3.21,0,5.18-2.28,5.18-4.51Z"/><path class="cls-2" d="M135.34,73.47h8.77v3.37a10.2,10.2,0,0,1,8.4-4.15c5.19,0,8.25,2.91,8.25,9V95.26l3,.15v4.16H151.37V95.62l1.71-.15c1-.11,1.51-.42,1.51-1.72V83.07c0-3.43-.73-5.61-4.26-5.61A5.12,5.12,0,0,0,145,82.7V95.26l3,.15v4.16H135.6V95.62l1.71-.15c1-.11,1.51-.42,1.51-1.72V79.38c0-1.14-.37-1.55-1.3-1.6l-2.18-.16Z"/><path class="cls-2" d="M185.19,93.29l2.23,4a14.3,14.3,0,0,1-9,3c-7.63,0-12.14-4.82-12.14-13.44,0-10.53,6.48-14.16,12.34-14.16a16.22,16.22,0,0,1,8.1,2.13v6.74l-4.78.37V79.44c0-1-.15-1.46-1.09-1.77a6,6,0,0,0-2-.31c-4.15,0-6.28,3.11-6.28,8.87s2.08,9.29,6.7,9.29A9.74,9.74,0,0,0,185.19,93.29Z"/><path class="cls-2" d="M211.65,79.9c0,8-8.67,9.34-14.79,9.39.21,3.37,2,6.12,6.38,6.12a11.17,11.17,0,0,0,6.54-2.28l2,4.2a15,15,0,0,1-9.13,2.91c-8.82,0-12.24-5.4-12.24-13.13s4.3-14.42,12.81-14.42C208.28,72.69,211.65,75.29,211.65,79.9Zm-8.82-2.8c-4.15,0-6,4-6.17,7.84,3.83-.06,9.28-.94,9.28-4.93C205.94,78.09,204.7,77.1,202.83,77.1Z"/><circle class="cls-3" cx="258.17" cy="36.64" r="32.59"/><circle class="cls-4" cx="225.04" cy="42.7" r="15.45"/><circle class="cls-5" cx="237.06" cy="20.1" r="20.1"/><circle class="cls-5" cx="237.06" cy="20.1" r="15.37"/><circle class="cls-6" cx="241.76" cy="70" r="10.88"/><circle class="cls-7" cx="241.76" cy="70" r="15.37"/><circle class="cls-7" cx="241.76" cy="70" r="21.76"/><circle class="cls-8" cx="237.06" cy="20.15" r="10.92"/><circle class="cls-9" cx="225.04" cy="42.7" r="7.92"/><circle class="cls-4" cx="225.04" cy="42.7" r="10.23"/><circle class="cls-10" cx="258.17" cy="36.65" r="24.92"/><circle class="cls-11" cx="272.59" cy="67.15" r="10.88"/><circle class="cls-12" cx="272.59" cy="67.15" r="15.37"/><circle class="cls-12" cx="272.59" cy="67.15" r="20.1"/><circle class="cls-13" cx="258.17" cy="36.64" r="17.63"/><path class="cls-13" d="M236.34,20.91c0-1.17,1.31-1.9,2.69-1.9h19.14c5.15,5,17.12,3,17.12,16.06v2.11c0,9.11-9.67,10.51-9.39,15.08l11.28,14c3.63,4.16-7.4,6.37-9.3,4L254.81,54.05h-7.62V70.32c0,1.89-4.34,1.89-5.43,1.89s-5.42,0-5.42-1.89Zm10.85,7.75V43.59h9.1c7,0,7.72-1.09,7.72-6.41V35.07c0-5.24-.73-6.41-7.72-6.41Z"/><circle class="cls-14" cx="255.46" cy="36.64" r="8.33"/></g></g></g></g></svg>